<svg width="160" height="40" viewBox="0 0 160 40" fill="none" xmlns="http://www.w3.org/2000/svg">
  <rect width="160" height="40" rx="12" fill="#0A0F1A"/>
  <path d="M18 28C11.3726 28 6 22.6274 6 16C6 9.37258 11.3726 4 18 4C22.9706 4 27.249 7.02128 29.039 11.5H23.7314C22.2802 9.39812 20.2608 8 18 8C13.5817 8 10 11.5817 10 16C10 20.4183 13.5817 24 18 24C20.2608 24 22.2802 22.6019 23.7314 20.5H29.039C27.249 24.9787 22.9706 28 18 28Z" fill="url(#paint0_linear)"/>
  <text x="40" y="26" font-family="'Inter', sans-serif" font-size="18" font-weight="700" fill="white">GeniePrompts</text>
  <defs>
    <linearGradient id="paint0_linear" x1="6" y1="4" x2="30" y2="28" gradientUnits="userSpaceOnUse">
      <stop stop-color="#464eeb"/>
      <stop offset="1" stop-color="#5596fe"/>
    </linearGradient>
  </defs>
</svg>
